<?xml version="1.0" encoding="UTF-8" standalone="no"?>
<!-- Generator: Adobe Illustrator 26.1.0, SVG Export Plug-In . SVG Version: 6.00 Build 0)  -->

<svg
   version="1.1"
   id="레이어_1"
   x="0px"
   y="0px"
   viewBox="0 0 175.0839 25.243379"
   xml:space="preserve"
   width="175.08389"
   height="25.24338"
   sodipodi:docname="logo.svg"
   inkscape:version="1.1.2 (0a00cf5339, 2022-02-04, custom)"
   xmlns:inkscape="http://www.inkscape.org/namespaces/inkscape"
   xmlns:sodipodi="http://sodipodi.sourceforge.net/DTD/sodipodi-0.dtd"
   xmlns="http://www.w3.org/2000/svg"
   xmlns:svg="http://www.w3.org/2000/svg"><sodipodi:namedview
   id="namedview13"
   pagecolor="#ffffff"
   bordercolor="#111111"
   borderopacity="1"
   inkscape:pageshadow="0"
   inkscape:pageopacity="0"
   inkscape:pagecheckerboard="1"
   showgrid="false"
   fit-margin-top="0"
   fit-margin-left="0"
   fit-margin-right="0"
   fit-margin-bottom="0"
   inkscape:zoom="0.81313567"
   inkscape:cx="-413.83008"
   inkscape:cy="-84.856688"
   inkscape:current-layer="레이어_1" /><defs
   id="defs23" />
<style
   type="text/css"
   id="style2">
	.st0{fill:#94BC51;}
	.st1{fill:#4683B9;}
</style>
<polygon
   class="st0"
   points="685.4,289.5 685.4,330.2 754.1,330.2 847.4,201.4 754.1,72.5 685.4,72.5 685.4,113.2 749.3,201.4 "
   id="polygon4"
   transform="matrix(0.09472187,0,0,0.09472187,-17.864543,-6.3558358)" />
<polygon
   class="st0"
   points="1008.4,289.5 1008.4,330.2 939.8,330.2 846.4,201.4 939.8,72.5 1008.4,72.5 1008.4,113.2 944.6,201.4 "
   id="polygon6"
   transform="matrix(0.09472187,0,0,0.09472187,-17.864543,-6.3558358)" />
<path
   class="st1"
   d="M 0,0.14208283 H 7.0473029 L 16.235331,13.639951 V 0.14208283 h 7.104137 V 24.551911 H 16.235331 L 7.0946721,11.148767 V 24.551911 H 0 Z"
   id="path8"
   style="stroke-width:0.094722" />
<path
   class="st1"
   d="M 25.158131,0.14208283 H 45.371785 V 5.3517883 H 32.716916 V 9.2353847 H 44.452972 V 14.217754 H 32.716916 v 4.81187 h 13.014802 v 5.522287 H 25.158131 Z"
   id="path10"
   style="stroke-width:0.094722" />
<path
   class="st1"
   d="M 79.357982,0.40730649 H 102.28068 V 6.4316159 H 94.589255 V 24.80766 H 87.049406 V 6.4316159 h -7.691424 z"
   id="path12"
   style="stroke-width:0.094722" />
<path
   class="st1"
   d="m 101.97755,12.626427 c 0,-3.9877918 1.10827,-7.0851949 3.32474,-9.3016879 C 107.51878,1.1082466 110.6162,0 114.57558,0 c 4.06357,0 7.18939,1.0893017 9.38692,3.2679072 2.19756,2.178603 3.29633,5.2381189 3.29633,9.1690758 0,2.851127 -0.48308,5.190757 -1.43976,7.018889 -0.95669,1.828134 -2.34912,3.248962 -4.15831,4.262486 -1.80917,1.013523 -4.07303,1.525021 -6.78208,1.525021 -2.75642,0 -5.02972,-0.435719 -6.82945,-1.316635 -1.79972,-0.880912 -3.26789,-2.263851 -4.38563,-4.158287 -1.12718,-1.913383 -1.68605,-4.290904 -1.68605,-7.14203 z m 7.53988,0.02843 c 0,2.462769 0.45467,4.234069 1.37345,5.313899 0.91882,1.079828 2.15966,1.610272 3.74151,1.610272 1.61974,0 2.87009,-0.530444 3.76046,-1.581856 0.89039,-1.051414 1.3356,-2.945852 1.3356,-5.673841 0,-2.301741 -0.46414,-3.9783179 -1.39242,-5.0392036 -0.92829,-1.0608854 -2.18808,-1.5913264 -3.76994,-1.5913264 -1.52501,0 -2.73746,0.5399151 -3.66574,1.6102714 -0.92825,1.0893015 -1.38292,2.8700716 -1.38292,5.3517846 z"
   id="path14"
   style="stroke-width:0.094722" />
<path
   class="st1"
   d="m 128.94488,0.40730649 h 7.03783 L 145.17074,13.905171 V 0.40730649 h 7.10414 V 24.80766 h -7.10414 L 136.03008,11.404514 V 24.80766 h -7.09467 V 0.40730649 Z"
   id="path16"
   style="stroke-width:0.094722" />
<path
   class="st1"
   d="m 154.51031,0.40730649 h 20.21365 V 5.6170088 h -12.65483 v 3.8835967 h 11.73602 v 4.9823685 h -11.73602 v 4.811874 h 13.01477 v 5.512812 h -20.57359 z"
   id="path18"
   style="stroke-width:0.094722" />
</svg>
